<svg aria-hidden="true" style="width:0;height:0;position:absolute;overflow:hidden" xmlns="http://www.w3.org/2000/svg"><defs><symbol id="icon-clock-1" viewBox="0 0 32 32"><path d="M31.296 15.301C31.295 6.849 24.441-.002 15.988 0S.685 6.855.687 15.308c.002 6.788 4.422 12.543 10.541 14.545l.108.031a.667.667 0 0 0 .529-.065.636.636 0 0 0 .283-.357l3.865-12.25a1.913 1.913 0 1 0-.852-3.63l.011-.005-5.106-5.107a.638.638 0 0 0-.902.902l5.103 5.109a1.847 1.847 0 0 0-.191.826c0 .602.283 1.137.723 1.48l.004.003-3.682 11.673C3.843 25.782.117 17.709 2.797 10.431S13.551-.573 20.829 2.108c7.278 2.681 11.004 10.754 8.323 18.032-1.345 3.581-4.003 6.406-7.374 7.938l-.088.036-.398-1.874a.639.639 0 0 0-1.05-.343l.001-.001-3.837 3.426a.637.637 0 0 0 .227 1.083l.005.001 4.899 1.563a.637.637 0 0 0 .818-.744l.001.004-.391-1.839c5.528-2.374 9.329-7.772 9.329-14.057v-.034.002zm-15.304-.637a.638.638 0 0 1 0 1.276.638.638 0 0 1 0-1.276zm2.1 14.864 2.184-1.948.603 2.84-2.787-.892z"/><path fill="#2196f3" style="fill:var(--color3,#2196f3)" d="M15.354 3.185V4.46a.638.638 0 0 0 1.276 0V3.185a.638.638 0 1 0-1.276 0zM3.876 14.664a.638.638 0 0 0 0 1.276h1.275a.638.638 0 0 0 0-1.276H3.876zm24.232 1.275a.638.638 0 0 0 0-1.276h-1.275a.638.638 0 0 0 0 1.276h1.275z"/></symbol><symbol id="icon-instagram" viewBox="0 0 32 32"><path d="M31.968 9.408c-.074-1.701-.349-2.869-.742-3.882a7.839 7.839 0 0 0-1.85-2.837l-.001-.001A7.906 7.906 0 0 0 26.597.861l-.054-.018C25.524.449 24.362.176 22.661.101 20.949.019 20.405 0 16.059 0c-4.344 0-4.888.019-6.595.094-1.699.074-2.869.349-3.88.742a7.847 7.847 0 0 0-2.839 1.85l-.001.001A7.9 7.9 0 0 0 .919 5.465l-.018.054C.506 6.538.232 7.7.157 9.401c-.082 1.712-.101 2.256-.101 6.602 0 4.344.019 4.888.094 6.595.075 1.701.35 2.869.744 3.882a7.915 7.915 0 0 0 1.849 2.837l.001.001c.8.813 1.77 1.443 2.832 1.843 1.019.395 2.182.67 3.882.744 1.707.075 2.251.094 6.595.094 4.346 0 4.89-.019 6.595-.094 1.701-.074 2.869-.349 3.882-.742a8.237 8.237 0 0 0 4.664-4.628l.019-.055c.394-1.019.669-2.182.744-3.882.075-1.707.093-2.251.093-6.595s-.006-4.888-.08-6.595zm-2.88 13.066c-.07 1.563-.333 2.406-.55 2.97a5.341 5.341 0 0 1-3.004 3.024l-.036.012c-.56.219-1.411.482-2.968.55-1.688.075-2.194.094-6.464.094-4.269 0-4.782-.019-6.464-.094-1.563-.069-2.406-.331-2.97-.55a4.953 4.953 0 0 1-1.836-1.192l-.001-.001a4.978 4.978 0 0 1-1.184-1.803L3.6 25.45c-.218-.563-.48-1.413-.549-2.97-.075-1.688-.094-2.195-.094-6.464 0-4.27.019-4.784.094-6.464.069-1.563.331-2.406.549-2.97a4.897 4.897 0 0 1 1.198-1.837l.002-.002a4.972 4.972 0 0 1 1.806-1.182l.034-.011c.56-.219 1.411-.48 2.968-.55 1.688-.074 2.195-.093 6.464-.093 4.275 0 4.782.019 6.464.093 1.563.069 2.406.331 2.97.55a4.91 4.91 0 0 1 1.837 1.194c.531.52.938 1.144 1.195 1.84.218.56.48 1.411.549 2.968.075 1.688.094 2.194.094 6.464 0 4.269-.019 4.768-.094 6.458z"/><path d="M16.059 7.782a8.223 8.223 0 0 0-8.219 8.221 8.223 8.223 0 0 0 16.442.008v-.009a8.223 8.223 0 0 0-8.221-8.221zm0 13.552a5.333 5.333 0 0 1 .001-10.666h.001a5.334 5.334 0 1 1 0 10.668zM26.525 7.458a1.92 1.92 0 0 1-3.84 0 1.92 1.92 0 0 1 3.84 0z"/></symbol><symbol id="icon-twitter" viewBox="0 0 32 32"><path d="M32 6.078c-1.1.493-2.376.857-3.713 1.028l-.068.007a6.556 6.556 0 0 0 2.873-3.579l.013-.046a12.88 12.88 0 0 1-4.076 1.573l-.084.014A6.558 6.558 0 0 0 15.6 9.557v.004c0 .52.043 1.021.152 1.496-5.454-.266-10.28-2.88-13.522-6.861a6.524 6.524 0 0 0-.902 3.313v.001a6.57 6.57 0 0 0 2.914 5.451 6.453 6.453 0 0 1-2.994-.823l.033.017v.072a6.592 6.592 0 0 0 5.213 6.44l.043.008a6.403 6.403 0 0 1-1.662.215h-.061.003c-.419 0-.843-.024-1.242-.112.85 2.598 3.261 4.509 6.13 4.57a13.093 13.093 0 0 1-8.122 2.8H1.57h.001-.062c-.531 0-1.055-.034-1.569-.099l.061.006c2.826 1.846 6.287 2.944 10.004 2.944h.063-.003c12.072 0 18.672-10 18.672-18.669 0-.288-.01-.57-.024-.848a13.203 13.203 0 0 0 3.258-3.355l.03-.047z"/></symbol><symbol id="icon-facebook" viewBox="0 0 32 32"><path d="M21.329 5.313h2.921V.225C23.746.156 22.013 0 19.994 0c-4.212 0-7.097 2.649-7.097 7.519V12H8.249v5.688h4.648V32h5.699V17.689h4.46l.708-5.688h-5.169V8.082c.001-1.644.444-2.769 2.735-2.769z"/></symbol><symbol id="icon-linkedin" viewBox="0 0 32 32"><path d="M31.992 32H32V20.262c0-5.741-1.237-10.163-7.947-10.163-3.227 0-5.392 1.77-6.277 3.45h-.093v-2.914h-6.365v21.363h6.627V21.42c0-2.786.528-5.48 3.978-5.48 3.398 0 3.448 3.179 3.448 5.658V32h6.621zM.528 10.635h6.635V32H.528V10.635zM3.843 0A3.843 3.843 0 0 0 0 3.843c0 2.12 1.722 3.878 3.843 3.878 2.12 0 3.842-1.757 3.842-3.878S5.965.002 3.844 0z"/></symbol><symbol id="icon-github" viewBox="0 0 32 32"><path d="M16 .395c-8.836 0-16 7.163-16 16 0 7.069 4.585 13.067 10.942 15.182.8.148 1.094-.347 1.094-.77 0-.381-.015-1.642-.022-2.979-4.452.968-5.391-1.888-5.391-1.888-.728-1.849-1.776-2.341-1.776-2.341-1.452-.993.11-.973.11-.973 1.606.113 2.452 1.649 2.452 1.649 1.427 2.446 3.743 1.739 4.656 1.33.143-1.034.558-1.74 1.016-2.14-3.554-.404-7.29-1.777-7.29-7.907 0-1.747.625-3.174 1.649-4.295-.166-.403-.714-2.03.155-4.234 0 0 1.344-.43 4.401 1.64a15.353 15.353 0 0 1 4.005-.539c1.359.006 2.729.184 4.008.539 3.054-2.07 4.395-1.64 4.395-1.64.871 2.204.323 3.831.157 4.234 1.026 1.12 1.647 2.548 1.647 4.295 0 6.145-3.743 7.498-7.306 7.895.574.497 1.085 1.47 1.085 2.963 0 2.141-.019 3.864-.019 4.391 0 .426.288.925 1.099.768C27.421 29.457 32 23.462 32 16.395c0-8.837-7.164-16-16-16z"/></symbol><symbol id="icon-close" viewBox="0 0 32 32"><path d="m26.667 7.303-1.97-1.97-7.808 7.808-7.808-7.808-1.97 1.97 7.808 7.808-7.808 7.808 1.97 1.97 7.808-7.808 7.808 7.808 1.97-1.97-7.808-7.808 7.808-7.808z"/></symbol><symbol id="icon-logo_nezlamni" viewBox="0 0 32 32"><path d="M32.074 16c0 10.642.011 16 .037 16s.037-5.358.037-16-.011-16-.037-16-.037 5.358-.037 16zM5.439 8.716c-.015.011-.026 1.219-.026 2.681 0 2.235.007 2.666.052 2.703.033.029.169.04.379.033l.324-.011.018-1.731c.011-.954.029-1.716.04-1.694.015.018.188.534.387 1.142l.365 1.105.037 1.178h.7l.011-2.718.007-2.714h-.736v1.259c0 .714-.015 1.245-.033 1.223-.015-.018-.173-.505-.35-1.083l-.376-1.226-.059-.173h-.357c-.199 0-.372.011-.383.026zM8.322 9.003c0 .298.004.313.085.317.044.004.265.007.493.011s.423.018.438.033c.015.015-.059.361-.169.773l-.523 1.996-.383 1.455a1.64 1.64 0 0 0-.052.339c0 .118.015.147.096.177.059.022.479.033 1.042.029l.943-.011.011-.324.011-.32h-.608c-.335 0-.615-.015-.626-.033-.011-.015.228-1.024.534-2.235l.552-2.206-.074-.158-.077-.155H8.321v.313zM12.465 8.749a.726.726 0 0 0-.438.464c-.085.265-.085 1.653 0 1.867.066.166.158.232.825.593.232.125.468.261.527.302l.099.07v1.281l-.099.077c-.088.066-.14.077-.32.066-.28-.022-.354-.099-.354-.379v-.191l-.302-.018c-.46-.026-.446-.04-.427.335.029.475.191.736.534.858.18.063.968.063 1.182 0a.76.76 0 0 0 .49-.475c.07-.243.07-1.749 0-1.919-.059-.14-.247-.269-.818-.56a4.506 4.506 0 0 1-.545-.317l-.114-.096v-.563c0-.608.026-.733.151-.773.147-.048.435-.029.53.033.085.055.092.085.092.331 0 .401-.011.39.39.39.339 0 .346 0 .368-.096.04-.155-.022-.759-.096-.921a.739.739 0 0 0-.438-.379c-.184-.059-1.053-.048-1.237.018zM15.337 8.735c-.199.07-.32.184-.42.394l-.096.206.007 2.081c.011 2.309.007 2.287.25 2.5.21.184.313.199 1.517.214 1.289.018 1.2.048 1.182-.387l-.011-.247-.405-.037-.018-2.099c-.018-1.893-.026-2.11-.081-2.228-.188-.376-.368-.442-1.2-.438-.339 0-.663.018-.725.04zm1.186.707.085.099-.007 1.959-.011 1.959h-.431c-.644 0-.589.14-.611-1.521-.018-1.484.011-2.397.081-2.493.063-.088.261-.129.552-.114.225.011.269.026.342.11zM18.136 8.812c-.015.066-.018 1.123-.011 2.349.018 2.467.018 2.478.258 2.71.184.177.361.236.799.258.751.04 1.09-.077 1.281-.442l.103-.191.011-2.405.011-2.401h-.74l-.007 2.305-.011 2.305-.103.088c-.088.077-.14.088-.372.088-.214 0-.291-.015-.357-.07l-.088-.07-.018-2.316-.018-2.313-.714-.022-.022.125zM21.745 8.76a.926.926 0 0 0-.247.173c-.214.232-.214.21-.214 2.795 0 2.125.007 2.368.059 2.39.074.029.486.029.593 0 .085-.022.085-.022.092-1.005l.011-.98h.847l.037 1.989h.7l.011-2.32c.011-2.541.007-2.622-.188-2.843-.199-.228-.357-.269-.994-.269-.468 0-.585.015-.707.07zm1.078.693c.081.088.081.096.074 1.053l-.011.965h-.847l-.011-.939c-.004-.516 0-.976.011-1.016.048-.206.611-.254.784-.063zM24.33 8.716c-.015.011-.026 1.212-.026 2.666 0 2.423.004 2.648.063 2.703.055.055.151.063.891.052.825-.015.836-.015 1.042-.118.166-.081.225-.133.284-.258.074-.155.077-.214.077-2.246.004-2.239 0-2.279-.184-2.5-.092-.107-.125-.122-.372-.147a26.54 26.54 0 0 1-1.156-.136c-.298-.044-.585-.052-.619-.015zm1.513.726.085.081v3.826l-.077.063c-.066.052-.151.066-.427.066h-.346l-.004-1.889c-.004-1.035-.004-1.959-.004-2.047 0-.092.022-.173.048-.195.029-.018.184-.022.346-.011.239.018.309.037.379.107zM8.156 15.683c-.129.055-.35.309-.446.508-.214.453-.214 1.097 0 1.712.199.574.622 1.027 1.061 1.134.597.151 1.112-.578 1.046-1.473-.04-.604-.265-1.171-.604-1.528-.298-.317-.394-.365-.707-.376a1.225 1.225 0 0 0-.35.022zM11.574 15.731c-.354.18-.678.633-.862 1.208-.107.328-.114.376-.099.81.015.442.018.471.151.744.151.309.276.435.545.527.512.18 1.171-.376 1.425-1.204.177-.571.177-1.094.004-1.561-.081-.214-.287-.471-.442-.549-.158-.085-.534-.07-.722.026zM19.646 15.687c-.118.048-.295.228-.398.405-.32.549-.265 1.51.125 2.195.118.21.468.578.619.655.221.114.401.14.604.081.722-.21.939-1.48.435-2.508-.166-.335-.468-.67-.718-.788-.162-.081-.523-.103-.666-.04zM23.052 15.742c-.342.18-.674.633-.847 1.16a2.387 2.387 0 0 0-.099.663c-.026.523.037.81.239 1.105.471.696 1.37.379 1.786-.626.387-.939.261-1.922-.295-2.298-.192-.133-.541-.133-.784-.004zM5.969 17.786c-.192.048-.306.151-.416.368-.136.28-.162.519-.088.891.173.873.84 1.613 1.458 1.613.173 0 .232-.018.361-.114.214-.158.306-.35.328-.696.04-.574-.184-1.175-.597-1.617-.346-.365-.725-.527-1.046-.446zM14.011 17.815c-.232.081-.398.192-.608.416a2.16 2.16 0 0 0-.604 1.451c-.004.379.044.556.21.74a.585.585 0 0 0 .512.236c.409 0 .91-.394 1.197-.943.449-.858.32-1.764-.276-1.93-.18-.048-.214-.048-.431.029zM17.407 17.801c-.192.07-.265.144-.383.387-.269.552.004 1.532.574 2.077.552.527 1.153.527 1.407-.004.25-.516.029-1.44-.475-2-.239-.265-.401-.372-.67-.453-.236-.07-.273-.07-.453-.007zM25.519 17.797c-.357.107-.762.493-.98.928-.35.707-.361 1.318-.033 1.701.166.195.298.247.563.225.534-.052 1.046-.585 1.333-1.399.147-.416.151-.703.004-1.005-.192-.409-.505-.567-.887-.449zM9.703 19.244c-.166.085-.298.221-.574.589-.261.35-.379.46-.74.689-.188.118-.994.571-1.374.77-.527.276-.619.427-.6.954.011.328.018.372.122.519.077.107.247.247.516.423.225.144.479.317.571.383.291.217.508.265 1.521.346.913.074 1.561.07 2.346-.018.854-.092.994-.125 1.263-.309.125-.085.379-.247.56-.361.361-.228.582-.431.641-.593.063-.162.052-.784-.015-.91-.074-.14-.317-.335-.608-.479a13.257 13.257 0 0 1-1.421-.817c-.313-.21-.405-.295-.56-.519-.291-.423-.622-.725-.795-.725a.55.55 0 0 0-.203.077l-.14.077-.144-.077c-.169-.092-.221-.096-.365-.018zM21.181 19.248c-.147.07-.479.427-.648.689-.217.339-.571.578-1.863 1.267-.685.365-.773.479-.773.991.004.53.103.67.817 1.116.169.103.383.243.479.313.096.066.261.14.368.166.35.077 1.142.147 1.907.169.63.018.88.011 1.495-.055.405-.041.817-.103.921-.133.188-.055 1.156-.674 1.374-.876.184-.173.225-.306.225-.707 0-.563-.037-.604-1.049-1.142-.968-.516-1.344-.784-1.598-1.134-.309-.431-.63-.725-.784-.725-.026 0-.114.033-.195.074s-.158.074-.177.074a.36.36 0 0 1-.125-.074c-.114-.088-.21-.092-.372-.011z"/></symbol><symbol id="icon-close-menu" viewBox="0 0 32 32"><path d="M23.734 10.304 22.23 8.8l-5.963 5.962L10.305 8.8l-1.504 1.504 5.962 5.962-5.962 5.963 1.504 1.504 5.962-5.963 5.963 5.963 1.504-1.504-5.963-5.963 5.963-5.962z"/></symbol><symbol id="moon" viewBox="0 0 32 32"><path fill="currentColor" d="M17.701 32a15.97 15.97 0 0 0 12.429-5.925c.442-.544-.04-1.339-.723-1.209-7.763 1.478-14.891-4.474-14.891-12.31 0-4.514 2.416-8.665 6.344-10.9.605-.345.453-1.262-.235-1.389-.879-.17-1.89-.267-2.923-.268-8.832 0-16 7.157-16 16 0 8.832 7.157 16 16 16z"/></symbol><symbol id="sun" viewBox="0 0 32 32"><path fill="currentColor" d="M16 10c-3.306 0-6 2.694-6 6s2.694 6 6 6 6-2.694 6-6-2.694-6-6-6zm15.4 5.031-5.919-2.956L27.575 5.8c.281-.85-.525-1.656-1.369-1.369l-6.275 2.094L16.969.6c-.4-.8-1.537-.8-1.938 0l-2.956 5.919-6.281-2.094c-.85-.281-1.656.525-1.369 1.369l2.094 6.275L.6 15.032c-.8.4-.8 1.538 0 1.938l5.919 2.956-2.094 6.281c-.281.85.525 1.656 1.369 1.369l6.275-2.094 2.956 5.919c.4.8 1.538.8 1.938 0l2.956-5.919 6.275 2.094c.85.281 1.656-.525 1.369-1.369l-2.094-6.275 5.919-2.956c.813-.406.813-1.544.012-1.944zm-9.744 6.625c-3.119 3.119-8.194 3.119-11.313 0s-3.119-8.194 0-11.313c3.119-3.119 8.194-3.119 11.313 0s3.119 8.194 0 11.313z"/></symbol></defs></svg>