<svg aria-hidden="true" style="position: absolute; width: 0; height: 0; overflow: hidden;" version="1.1" xmlns="http://www.w3.org/2000/svg" xmlns:xlink="http://www.w3.org/1999/xlink">
<defs>
<symbol id="icon-clock-1" viewBox="0 0 32 32">
<path  d="M31.296 15.301c-0.001-8.452-6.855-15.303-15.308-15.301s-15.303 6.855-15.301 15.308c0.002 6.788 4.422 12.543 10.541 14.545l0.108 0.031c0.061 0.019 0.123 0.029 0.187 0.029 0.12 0 0.238-0.032 0.342-0.094 0.135-0.080 0.236-0.207 0.283-0.357l3.865-12.25c1.054-0.004 1.906-0.859 1.906-1.913 0-1.056-0.856-1.913-1.913-1.913-0.303 0-0.59 0.071-0.845 0.196l0.011-0.005-5.106-5.107c-0.114-0.11-0.271-0.179-0.443-0.179-0.352 0-0.638 0.286-0.638 0.638 0 0.172 0.068 0.328 0.179 0.443l-0-0 5.103 5.109c-0.121 0.241-0.191 0.525-0.191 0.826 0 0.602 0.283 1.137 0.723 1.48l0.004 0.003-3.682 11.673c-7.278-2.681-11.004-10.754-8.324-18.032s10.754-11.004 18.032-8.323c7.278 2.681 11.004 10.754 8.323 18.032-1.345 3.581-4.003 6.406-7.374 7.938l-0.088 0.036-0.398-1.874c-0.063-0.291-0.318-0.506-0.624-0.506-0.164 0-0.313 0.062-0.426 0.163l0.001-0.001-3.837 3.426c-0.132 0.117-0.214 0.287-0.214 0.477 0 0.283 0.185 0.524 0.441 0.606l0.005 0.001 4.899 1.563c0.058 0.020 0.126 0.031 0.196 0.031 0.352 0 0.637-0.285 0.637-0.637 0-0.047-0.005-0.093-0.015-0.138l0.001 0.004-0.391-1.839c5.528-2.374 9.329-7.772 9.329-14.057 0-0.011 0-0.023-0-0.034v0.002zM15.992 14.664c0.352 0 0.638 0.286 0.638 0.638s-0.285 0.638-0.638 0.638v0c-0.352 0-0.638-0.286-0.638-0.638s0.286-0.638 0.638-0.638v0zM18.092 29.528l2.184-1.948 0.603 2.84-2.787-0.892z"></path>
<path fill="#2196f3" style="fill: var(--color3, #2196f3)" d="M15.354 3.185v1.275c0 0.352 0.286 0.638 0.638 0.638s0.638-0.285 0.638-0.638v0-1.275c0-0.352-0.285-0.638-0.638-0.638s-0.638 0.285-0.638 0.638v0zM3.876 14.664c-0.352 0-0.638 0.286-0.638 0.638s0.285 0.638 0.638 0.638h1.275c0.352 0 0.638-0.286 0.638-0.638s-0.285-0.638-0.638-0.638h-1.275zM28.108 15.939c0.352 0 0.638-0.286 0.638-0.638s-0.285-0.638-0.638-0.638h-1.275c-0.352 0-0.638 0.286-0.638 0.638s0.285 0.638 0.638 0.638h1.275z"></path>
</symbol>

<symbol id="icon-instagram" viewBox="0 0 32 32">
<path  d="M31.968 9.408c-0.074-1.701-0.349-2.869-0.742-3.882-0.424-1.111-1.054-2.059-1.85-2.837l-0.001-0.001c-0.78-0.792-1.724-1.419-2.778-1.827l-0.054-0.018c-1.019-0.394-2.181-0.667-3.882-0.742-1.712-0.082-2.256-0.101-6.602-0.101-4.344 0-4.888 0.019-6.595 0.094-1.699 0.074-2.869 0.349-3.88 0.742-1.112 0.424-2.060 1.054-2.839 1.85l-0.001 0.001c-0.791 0.78-1.418 1.724-1.825 2.778l-0.018 0.054c-0.395 1.019-0.669 2.181-0.744 3.882-0.082 1.712-0.101 2.256-0.101 6.602 0 4.344 0.019 4.888 0.094 6.595 0.075 1.701 0.35 2.869 0.744 3.882 0.426 1.11 1.055 2.057 1.849 2.837l0.001 0.001c0.8 0.813 1.77 1.443 2.832 1.843 1.019 0.395 2.182 0.67 3.882 0.744 1.707 0.075 2.251 0.094 6.595 0.094 4.346 0 4.89-0.019 6.595-0.094 1.701-0.074 2.869-0.349 3.882-0.742 2.157-0.85 3.833-2.526 4.664-4.628l0.019-0.055c0.394-1.019 0.669-2.182 0.744-3.882 0.075-1.707 0.093-2.251 0.093-6.595s-0.006-4.888-0.080-6.595zM29.088 22.474c-0.070 1.563-0.333 2.406-0.55 2.97-0.552 1.399-1.64 2.486-3.004 3.024l-0.036 0.012c-0.56 0.219-1.411 0.482-2.968 0.55-1.688 0.075-2.194 0.094-6.464 0.094-4.269 0-4.782-0.019-6.464-0.094-1.563-0.069-2.406-0.331-2.97-0.55-0.721-0.269-1.334-0.676-1.836-1.192l-0.001-0.001c-0.517-0.503-0.924-1.117-1.184-1.803l-0.011-0.034c-0.218-0.563-0.48-1.413-0.549-2.97-0.075-1.688-0.094-2.195-0.094-6.464 0-4.27 0.019-4.784 0.094-6.464 0.069-1.563 0.331-2.406 0.549-2.97 0.269-0.722 0.678-1.337 1.198-1.837l0.002-0.002c0.504-0.517 1.119-0.923 1.806-1.182l0.034-0.011c0.56-0.219 1.411-0.48 2.968-0.55 1.688-0.074 2.195-0.093 6.464-0.093 4.275 0 4.782 0.019 6.464 0.093 1.563 0.069 2.406 0.331 2.97 0.55 0.693 0.256 1.325 0.662 1.837 1.194 0.531 0.52 0.938 1.144 1.195 1.84 0.218 0.56 0.48 1.411 0.549 2.968 0.075 1.688 0.094 2.194 0.094 6.464 0 4.269-0.019 4.768-0.094 6.458z"></path>
<path  d="M16.059 7.782c-4.539 0.002-8.218 3.682-8.219 8.221v0c0.091 4.471 3.737 8.060 8.221 8.060s8.13-3.589 8.221-8.052l0-0.009c-0.001-4.54-3.681-8.22-8.221-8.221h-0zM16.059 21.334c-2.945-0-5.332-2.388-5.332-5.333s2.388-5.333 5.333-5.333c0 0 0.001 0 0.001 0h-0c2.946 0 5.334 2.388 5.334 5.334s-2.388 5.334-5.334 5.334v0zM26.525 7.458c0 1.060-0.86 1.92-1.92 1.92s-1.92-0.86-1.92-1.92v0c0-1.060 0.86-1.92 1.92-1.92s1.92 0.86 1.92 1.92v0z"></path>
</symbol>
<symbol id="icon-twitter" viewBox="0 0 32 32">
<path  d="M32 6.078c-1.1 0.493-2.376 0.857-3.713 1.028l-0.068 0.007c1.36-0.817 2.382-2.078 2.873-3.579l0.013-0.046c-1.197 0.722-2.591 1.273-4.076 1.573l-0.084 0.014c-1.2-1.279-2.9-2.076-4.787-2.076-3.622 0-6.558 2.936-6.558 6.558 0 0.001 0 0.003 0 0.004v-0c0 0.52 0.043 1.021 0.152 1.496-5.454-0.266-10.28-2.88-13.522-6.861-0.564 0.949-0.899 2.092-0.902 3.313v0.001c0 2.272 1.171 4.286 2.914 5.451-1.091-0.030-2.107-0.325-2.994-0.823l0.033 0.017v0.072c0.003 3.165 2.236 5.807 5.213 6.44l0.043 0.008c-0.499 0.136-1.071 0.215-1.662 0.215-0.020 0-0.041-0-0.061-0l0.003 0c-0.419 0-0.843-0.024-1.242-0.112 0.85 2.598 3.261 4.509 6.13 4.57-2.215 1.746-5.045 2.8-8.122 2.8-0.004 0-0.008 0-0.013 0h0.001c-0.018 0-0.040 0-0.062 0-0.531 0-1.055-0.034-1.569-0.099l0.061 0.006c2.826 1.846 6.287 2.944 10.004 2.944 0.021 0 0.042-0 0.063-0h-0.003c12.072 0 18.672-10 18.672-18.669 0-0.288-0.010-0.57-0.024-0.848 1.299-0.936 2.39-2.064 3.258-3.355l0.030-0.047z"></path>
</symbol>
<symbol id="icon-facebook" viewBox="0 0 32 32">
<path  d="M21.329 5.313h2.921v-5.088c-0.504-0.069-2.237-0.225-4.256-0.225-4.212 0-7.097 2.649-7.097 7.519v4.481h-4.648v5.688h4.648v14.312h5.699v-14.311h4.46l0.708-5.688h-5.169v-3.919c0.001-1.644 0.444-2.769 2.735-2.769z"></path>
</symbol>
<symbol id="icon-linkedin" viewBox="0 0 32 32">
<path  d="M31.992 32h0.008v-11.738c0-5.741-1.237-10.163-7.947-10.163-3.227 0-5.392 1.77-6.277 3.45h-0.093v-2.914h-6.365v21.363h6.627v-10.578c0-2.786 0.528-5.48 3.978-5.48 3.398 0 3.448 3.179 3.448 5.658v10.402h6.621zM0.528 10.635h6.635v21.365h-6.635v-21.365zM3.843 0c-2.123 0-3.843 1.721-3.843 3.843v0c0 2.12 1.722 3.878 3.843 3.878 2.12 0 3.842-1.757 3.842-3.878s-1.72-3.841-3.841-3.843h-0z"></path>
</symbol>

<symbol id="icon-github" viewBox="0 0 32 32">
<path d="M16 0.395c-8.836 0-16 7.163-16 16 0 7.069 4.585 13.067 10.942 15.182 0.8 0.148 1.094-0.347 1.094-0.77 0-0.381-0.015-1.642-0.022-2.979-4.452 0.968-5.391-1.888-5.391-1.888-0.728-1.849-1.776-2.341-1.776-2.341-1.452-0.993 0.11-0.973 0.11-0.973 1.606 0.113 2.452 1.649 2.452 1.649 1.427 2.446 3.743 1.739 4.656 1.33 0.143-1.034 0.558-1.74 1.016-2.14-3.554-0.404-7.29-1.777-7.29-7.907 0-1.747 0.625-3.174 1.649-4.295-0.166-0.403-0.714-2.030 0.155-4.234 0 0 1.344-0.43 4.401 1.64 1.276-0.355 2.645-0.532 4.005-0.539 1.359 0.006 2.729 0.184 4.008 0.539 3.054-2.070 4.395-1.64 4.395-1.64 0.871 2.204 0.323 3.831 0.157 4.234 1.026 1.12 1.647 2.548 1.647 4.295 0 6.145-3.743 7.498-7.306 7.895 0.574 0.497 1.085 1.47 1.085 2.963 0 2.141-0.019 3.864-0.019 4.391 0 0.426 0.288 0.925 1.099 0.768 6.354-2.118 10.933-8.113 10.933-15.18 0-8.837-7.164-16-16-16z"></path>
</symbol>

<symbol id="icon-close" viewBox="0 0 32 32">
<path d="M26.667 7.303l-1.97-1.97-7.808 7.808-7.808-7.808-1.97 1.97 7.808 7.808-7.808 7.808 1.97 1.97 7.808-7.808 7.808 7.808 1.97-1.97-7.808-7.808 7.808-7.808z"></path>
</symbol>

<symbol id="icon-logo_nezlamni" viewBox="0 0 32 32">
<path d="M32.074 16c0 10.642 0.011 16 0.037 16s0.037-5.358 0.037-16c0-10.642-0.011-16-0.037-16s-0.037 5.358-0.037 16z"></path>
<path d="M5.439 8.716c-0.015 0.011-0.026 1.219-0.026 2.681 0 2.235 0.007 2.666 0.052 2.703 0.033 0.029 0.169 0.040 0.379 0.033l0.324-0.011 0.018-1.731c0.011-0.954 0.029-1.716 0.040-1.694 0.015 0.018 0.188 0.534 0.387 1.142l0.365 1.105 0.037 1.178h0.7l0.011-2.718 0.007-2.714h-0.736v1.259c0 0.714-0.015 1.245-0.033 1.223-0.015-0.018-0.173-0.505-0.35-1.083s-0.346-1.127-0.376-1.226l-0.059-0.173h-0.357c-0.199 0-0.372 0.011-0.383 0.026z"></path>
<path d="M8.322 9.003c0 0.298 0.004 0.313 0.085 0.317 0.044 0.004 0.265 0.007 0.493 0.011s0.423 0.018 0.438 0.033c0.015 0.015-0.059 0.361-0.169 0.773-0.107 0.409-0.342 1.307-0.523 1.996s-0.354 1.344-0.383 1.455c-0.029 0.11-0.052 0.261-0.052 0.339 0 0.118 0.015 0.147 0.096 0.177 0.059 0.022 0.479 0.033 1.042 0.029l0.943-0.011 0.011-0.324 0.011-0.32h-0.608c-0.335 0-0.615-0.015-0.626-0.033-0.011-0.015 0.228-1.024 0.534-2.235l0.552-2.206-0.074-0.158-0.077-0.155h-1.694v0.313z"></path>
<path d="M12.465 8.749c-0.206 0.074-0.368 0.247-0.438 0.464-0.085 0.265-0.085 1.653 0 1.867 0.066 0.166 0.158 0.232 0.825 0.593 0.232 0.125 0.468 0.261 0.527 0.302l0.099 0.070v1.281l-0.099 0.077c-0.088 0.066-0.14 0.077-0.32 0.066-0.28-0.022-0.354-0.099-0.354-0.379v-0.191l-0.302-0.018c-0.46-0.026-0.446-0.040-0.427 0.335 0.029 0.475 0.191 0.736 0.534 0.858 0.18 0.063 0.968 0.063 1.182 0 0.228-0.070 0.427-0.265 0.49-0.475 0.070-0.243 0.070-1.749 0-1.919-0.059-0.14-0.247-0.269-0.818-0.56-0.239-0.122-0.482-0.265-0.545-0.317l-0.114-0.096v-0.563c0-0.608 0.026-0.733 0.151-0.773 0.147-0.048 0.435-0.029 0.53 0.033 0.085 0.055 0.092 0.085 0.092 0.331 0 0.401-0.011 0.39 0.39 0.39 0.339 0 0.346 0 0.368-0.096 0.040-0.155-0.022-0.759-0.096-0.921-0.070-0.166-0.243-0.313-0.438-0.379-0.184-0.059-1.053-0.048-1.237 0.018z"></path>
<path d="M15.337 8.735c-0.199 0.070-0.32 0.184-0.42 0.394l-0.096 0.206 0.007 2.081c0.011 2.309 0.007 2.287 0.25 2.5 0.21 0.184 0.313 0.199 1.517 0.214 1.289 0.018 1.2 0.048 1.182-0.387l-0.011-0.247-0.405-0.037-0.018-2.099c-0.018-1.893-0.026-2.11-0.081-2.228-0.188-0.376-0.368-0.442-1.2-0.438-0.339 0-0.663 0.018-0.725 0.040zM16.523 9.442l0.085 0.099-0.007 1.959-0.011 1.959h-0.431c-0.644 0-0.589 0.14-0.611-1.521-0.018-1.484 0.011-2.397 0.081-2.493 0.063-0.088 0.261-0.129 0.552-0.114 0.225 0.011 0.269 0.026 0.342 0.11z"></path>
<path d="M18.136 8.812c-0.015 0.066-0.018 1.123-0.011 2.349 0.018 2.467 0.018 2.478 0.258 2.71 0.184 0.177 0.361 0.236 0.799 0.258 0.751 0.040 1.090-0.077 1.281-0.442l0.103-0.191 0.011-2.405 0.011-2.401h-0.74l-0.007 2.305-0.011 2.305-0.103 0.088c-0.088 0.077-0.14 0.088-0.372 0.088-0.214 0-0.291-0.015-0.357-0.070l-0.088-0.070-0.018-2.316-0.018-2.313-0.714-0.022-0.022 0.125z"></path>
<path d="M21.745 8.76c-0.081 0.037-0.192 0.114-0.247 0.173-0.214 0.232-0.214 0.21-0.214 2.795 0 2.125 0.007 2.368 0.059 2.39 0.074 0.029 0.486 0.029 0.593 0 0.085-0.022 0.085-0.022 0.092-1.005l0.011-0.98h0.847l0.037 1.989h0.7l0.011-2.32c0.011-2.541 0.007-2.622-0.188-2.843-0.199-0.228-0.357-0.269-0.994-0.269-0.468 0-0.585 0.015-0.707 0.070zM22.823 9.453c0.081 0.088 0.081 0.096 0.074 1.053l-0.011 0.965h-0.847l-0.011-0.939c-0.004-0.516 0-0.976 0.011-1.016 0.048-0.206 0.611-0.254 0.784-0.063z"></path>
<path d="M24.33 8.716c-0.015 0.011-0.026 1.212-0.026 2.666 0 2.423 0.004 2.648 0.063 2.703 0.055 0.055 0.151 0.063 0.891 0.052 0.825-0.015 0.836-0.015 1.042-0.118 0.166-0.081 0.225-0.133 0.284-0.258 0.074-0.155 0.077-0.214 0.077-2.246 0.004-2.239 0-2.279-0.184-2.5-0.092-0.107-0.125-0.122-0.372-0.147-0.365-0.033-0.843-0.092-1.156-0.136-0.298-0.044-0.585-0.052-0.619-0.015zM25.843 9.442l0.085 0.081v3.826l-0.077 0.063c-0.066 0.052-0.151 0.066-0.427 0.066h-0.346l-0.004-1.889c-0.004-1.035-0.004-1.959-0.004-2.047 0-0.092 0.022-0.173 0.048-0.195 0.029-0.018 0.184-0.022 0.346-0.011 0.239 0.018 0.309 0.037 0.379 0.107z"></path>
<path d="M8.156 15.683c-0.129 0.055-0.35 0.309-0.446 0.508-0.214 0.453-0.214 1.097 0 1.712 0.199 0.574 0.622 1.027 1.061 1.134 0.597 0.151 1.112-0.578 1.046-1.473-0.040-0.604-0.265-1.171-0.604-1.528-0.298-0.317-0.394-0.365-0.707-0.376-0.151-0.007-0.309 0.004-0.35 0.022z"></path>
<path d="M11.574 15.731c-0.354 0.18-0.678 0.633-0.862 1.208-0.107 0.328-0.114 0.376-0.099 0.81 0.015 0.442 0.018 0.471 0.151 0.744 0.151 0.309 0.276 0.435 0.545 0.527 0.512 0.18 1.171-0.376 1.425-1.204 0.177-0.571 0.177-1.094 0.004-1.561-0.081-0.214-0.287-0.471-0.442-0.549-0.158-0.085-0.534-0.070-0.722 0.026z"></path>
<path d="M19.646 15.687c-0.118 0.048-0.295 0.228-0.398 0.405-0.32 0.549-0.265 1.51 0.125 2.195 0.118 0.21 0.468 0.578 0.619 0.655 0.221 0.114 0.401 0.14 0.604 0.081 0.722-0.21 0.939-1.48 0.435-2.508-0.166-0.335-0.468-0.67-0.718-0.788-0.162-0.081-0.523-0.103-0.666-0.040z"></path>
<path d="M23.052 15.742c-0.342 0.18-0.674 0.633-0.847 1.16-0.055 0.166-0.088 0.372-0.099 0.663-0.026 0.523 0.037 0.81 0.239 1.105 0.471 0.696 1.37 0.379 1.786-0.626 0.387-0.939 0.261-1.922-0.295-2.298-0.192-0.133-0.541-0.133-0.784-0.004z"></path>
<path d="M5.969 17.786c-0.192 0.048-0.306 0.151-0.416 0.368-0.136 0.28-0.162 0.519-0.088 0.891 0.173 0.873 0.84 1.613 1.458 1.613 0.173 0 0.232-0.018 0.361-0.114 0.214-0.158 0.306-0.35 0.328-0.696 0.040-0.574-0.184-1.175-0.597-1.617-0.346-0.365-0.725-0.527-1.046-0.446z"></path>
<path d="M14.011 17.815c-0.232 0.081-0.398 0.192-0.608 0.416-0.379 0.394-0.597 0.924-0.604 1.451-0.004 0.379 0.044 0.556 0.21 0.74 0.151 0.177 0.284 0.236 0.512 0.236 0.409 0 0.91-0.394 1.197-0.943 0.449-0.858 0.32-1.764-0.276-1.93-0.18-0.048-0.214-0.048-0.431 0.029z"></path>
<path d="M17.407 17.801c-0.192 0.070-0.265 0.144-0.383 0.387-0.269 0.552 0.004 1.532 0.574 2.077 0.552 0.527 1.153 0.527 1.407-0.004 0.25-0.516 0.029-1.44-0.475-2-0.239-0.265-0.401-0.372-0.67-0.453-0.236-0.070-0.273-0.070-0.453-0.007z"></path>
<path d="M25.519 17.797c-0.357 0.107-0.762 0.493-0.98 0.928-0.35 0.707-0.361 1.318-0.033 1.701 0.166 0.195 0.298 0.247 0.563 0.225 0.534-0.052 1.046-0.585 1.333-1.399 0.147-0.416 0.151-0.703 0.004-1.005-0.192-0.409-0.505-0.567-0.887-0.449z"></path>
<path d="M9.703 19.244c-0.166 0.085-0.298 0.221-0.574 0.589-0.261 0.35-0.379 0.46-0.74 0.689-0.188 0.118-0.994 0.571-1.374 0.77-0.527 0.276-0.619 0.427-0.6 0.954 0.011 0.328 0.018 0.372 0.122 0.519 0.077 0.107 0.247 0.247 0.516 0.423 0.225 0.144 0.479 0.317 0.571 0.383 0.291 0.217 0.508 0.265 1.521 0.346 0.913 0.074 1.561 0.070 2.346-0.018 0.854-0.092 0.994-0.125 1.263-0.309 0.125-0.085 0.379-0.247 0.56-0.361 0.361-0.228 0.582-0.431 0.641-0.593 0.063-0.162 0.052-0.784-0.015-0.91-0.074-0.14-0.317-0.335-0.608-0.479-0.497-0.247-1.061-0.571-1.421-0.817-0.313-0.21-0.405-0.295-0.56-0.519-0.291-0.423-0.622-0.725-0.795-0.725-0.037 0-0.129 0.033-0.203 0.077l-0.14 0.077-0.144-0.077c-0.169-0.092-0.221-0.096-0.365-0.018z"></path>
<path d="M21.181 19.248c-0.147 0.070-0.479 0.427-0.648 0.689-0.217 0.339-0.571 0.578-1.863 1.267-0.685 0.365-0.773 0.479-0.773 0.991 0.004 0.53 0.103 0.67 0.817 1.116 0.169 0.103 0.383 0.243 0.479 0.313 0.096 0.066 0.261 0.14 0.368 0.166 0.35 0.077 1.142 0.147 1.907 0.169 0.63 0.018 0.88 0.011 1.495-0.055 0.405-0.041 0.817-0.103 0.921-0.133 0.188-0.055 1.156-0.674 1.374-0.876 0.184-0.173 0.225-0.306 0.225-0.707 0-0.563-0.037-0.604-1.049-1.142-0.968-0.516-1.344-0.784-1.598-1.134-0.309-0.431-0.63-0.725-0.784-0.725-0.026 0-0.114 0.033-0.195 0.074s-0.158 0.074-0.177 0.074c-0.018 0-0.074-0.033-0.125-0.074-0.114-0.088-0.21-0.092-0.372-0.011z"></path>
</symbol>

<symbol id="icon-close-menu" viewBox="0 0 32 32">
<path d="M23.734 10.304l-1.504-1.504-5.963 5.962-5.962-5.962-1.504 1.504 5.962 5.962-5.962 5.963 1.504 1.504 5.962-5.963 5.963 5.963 1.504-1.504-5.963-5.963 5.963-5.962z"></path>
</symbol>
<symbol id="moon" viewBox="0 0 32 32"><path fill="currentColor" d="M17.701 32a15.97 15.97 0 0012.429-5.925c.442-.544-.04-1.339-.723-1.209-7.763 1.478-14.891-4.474-14.891-12.31 0-4.514 2.416-8.665 6.344-10.9.605-.345.453-1.262-.235-1.389-.879-.17-1.89-.267-2.923-.268-8.832 0-16 7.157-16 16 0 8.832 7.157 16 16 16z"/></symbol>
<symbol id="sun" viewBox="0 0 32 32"><path fill="currentColor" d="M16 10c-3.306 0-6 2.694-6 6s2.694 6 6 6 6-2.694 6-6-2.694-6-6-6zm15.4 5.031l-5.919-2.956L27.575 5.8c.281-.85-.525-1.656-1.369-1.369l-6.275 2.094L16.969.6c-.4-.8-1.537-.8-1.938 0l-2.956 5.919-6.281-2.094c-.85-.281-1.656.525-1.369 1.369l2.094 6.275L.6 15.032c-.8.4-.8 1.538 0 1.938l5.919 2.956-2.094 6.281c-.281.85.525 1.656 1.369 1.369l6.275-2.094 2.956 5.919c.4.8 1.538.8 1.938 0l2.956-5.919 6.275 2.094c.85.281 1.656-.525 1.369-1.369l-2.094-6.275 5.919-2.956c.813-.406.813-1.544.012-1.944zm-9.744 6.625c-3.119 3.119-8.194 3.119-11.313 0s-3.119-8.194 0-11.313c3.119-3.119 8.194-3.119 11.313 0s3.119 8.194 0 11.313z"/></symbol>
</defs>
</svg>
